<svg xmlns="http://www.w3.org/2000/svg" viewBox="0 0 595 109" width="595" height="109" role="img" aria-label="vaiacon"><path fill="#ffffff" fill-rule="evenodd" d="M142.13,15.51C137.61,13.35 129.27,15.41 125.54,12.24C124.24,11.14 125.03,9.35 125.64,8.11C127.38,4.55 130.14,1.62 133.99,0.39C140.52,-1.71 173.03,-0.21 181.87,-0.01C182.13,9.33 183.63,38.02 181.59,45.54C180.95,47.90 178.99,50.39 176.92,51.65C175.31,52.63 172.91,53.93 171.35,52.21C168.21,48.73 168.81,37.65 166.30,32.72C158.20,38.19 138.86,71.85 131.72,81.99C129.53,85.11 127.76,89.40 124.42,91.52C115.64,97.08 107.82,89.24 103.74,82.46C102.74,80.80 101.10,78.93 101.48,76.85C102.21,72.89 129.48,31.67 133.77,25.67C136.30,22.13 139.82,19.16 142.13,15.51ZM118.60,99.73C113.89,105.24 106.14,108.53 98.94,108.57C91.68,108.62 84.08,107.34 78.06,102.87C67.70,95.20 48.97,59.29 40.51,46.59C38.17,43.06 35.97,38.44 32.82,35.58C30.10,33.10 13.10,27.82 17.85,21.58C19.85,18.96 28.69,20.95 31.82,20.95C39.22,20.96 49.32,19.20 56.19,22.31C69.48,28.32 92.63,84.56 108.20,96.33C111.19,98.58 115.22,98.33 118.60,99.73ZM36.74,58.94L37.26,58.97L37.77,59.07L38.27,59.24L38.74,59.47L39.17,59.76L39.57,60.11L39.91,60.50L40.20,60.94L40.43,61.41L40.60,61.90L40.71,62.42L40.74,62.94L40.71,63.46L40.60,63.97L40.43,64.47L40.20,64.94L39.91,65.37L39.57,65.77L39.17,66.11L38.74,66.40L38.27,66.63L37.77,66.80L37.26,66.90L36.74,66.94L15.94,66.94L15.42,66.90L14.90,66.80L14.41,66.63L13.94,66.40L13.50,66.11L13.11,65.77L12.76,65.37L12.47,64.94L12.24,64.47L12.07,63.97L11.97,63.46L11.94,62.94L11.97,62.42L12.07,61.90L12.24,61.41L12.47,60.94L12.76,60.50L13.11,60.11L13.50,59.76L13.94,59.47L14.41,59.24L14.90,59.07L15.42,58.97L15.94,58.94ZM44.89,72.44L45.41,72.47L45.92,72.57L46.42,72.74L46.89,72.97L47.32,73.26L47.72,73.61L48.06,74.00L48.35,74.44L48.58,74.91L48.75,75.40L48.85,75.92L48.89,76.44L48.85,76.96L48.75,77.47L48.58,77.97L48.35,78.44L48.06,78.87L47.72,79.27L47.32,79.61L46.89,79.90L46.42,80.13L45.92,80.30L45.41,80.40L44.89,80.44L15.94,80.44L15.41,80.40L14.90,80.30L14.41,80.13L13.94,79.90L13.50,79.61L13.11,79.27L12.76,78.87L12.47,78.44L12.24,77.97L12.07,77.47L11.97,76.96L11.94,76.44L11.97,75.92L12.07,75.40L12.24,74.91L12.47,74.44L12.76,74.00L13.11,73.61L13.50,73.26L13.94,72.97L14.41,72.74L14.90,72.57L15.41,72.47L15.94,72.44ZM52.93,85.94L53.45,85.97L53.97,86.07L54.46,86.24L54.93,86.47L55.37,86.76L55.76,87.11L56.10,87.50L56.40,87.94L56.63,88.41L56.79,88.90L56.90,89.42L56.93,89.94L56.90,90.46L56.79,90.97L56.63,91.47L56.40,91.94L56.10,92.37L55.76,92.77L55.37,93.11L54.93,93.40L54.46,93.63L53.97,93.80L53.45,93.90L52.93,93.94L28.94,93.94L28.42,93.90L27.91,93.80L27.41,93.63L26.94,93.40L26.51,93.11L26.12,92.77L25.77,92.37L25.48,91.94L25.25,91.47L25.08,90.97L24.98,90.46L24.94,89.94L24.98,89.42L25.08,88.90L25.25,88.41L25.48,87.94L25.77,87.50L26.12,87.11L26.51,86.76L26.94,86.47L27.41,86.24L27.91,86.07L28.42,85.97L28.94,85.94ZM3.94,59.68L4.43,59.72L4.91,59.81L5.37,59.97L5.81,60.19L6.22,60.46L6.59,60.78L6.91,61.15L7.18,61.56L7.40,62.00L7.56,62.46L7.65,62.94L7.68,63.43L7.65,63.92L7.56,64.40L7.40,64.86L7.18,65.30L6.91,65.71L6.59,66.08L6.22,66.40L5.81,66.67L5.37,66.89L4.91,67.05L4.43,67.14L3.94,67.18L3.94,67.18L3.45,67.14L2.97,67.05L2.50,66.89L2.06,66.67L1.66,66.40L1.29,66.08L0.97,65.71L0.69,65.30L0.48,64.86L0.32,64.40L0.22,63.92L0.19,63.43L0.22,62.94L0.32,62.46L0.48,62.00L0.69,61.56L0.97,61.15L1.29,60.78L1.66,60.46L2.06,60.19L2.50,59.97L2.97,59.81L3.45,59.72L3.94,59.68Z"/><g fill="none" stroke="#ffffff" stroke-width="9.25" stroke-linecap="round" stroke-linejoin="round"><path d="M292.62,48.25C294.30,47.27 296.07,46.49 297.93,45.93C305.10,43.78 316.52,43.62 321.12,50.70C323.44,54.27 323.77,59.59 323.88,63.75"/><path d="M325.00,86.50L323.62,80.38"/><path d="M323.75,63.88C320.29,63.87 316.83,63.87 313.37,63.87C307.67,63.88 301.79,63.80 296.44,66.09C294.65,66.86 292.96,67.96 291.80,69.55C289.12,73.24 289.10,80.15 292.35,83.51C294.75,86.00 298.39,86.87 301.73,87.01C305.10,87.15 308.47,86.61 311.61,85.39C313.57,84.63 315.44,83.66 317.37,82.83C319.43,81.94 321.55,81.22 323.62,80.38"/><path d="M323.75,64.00L323.75,80.38"/><path d="M382.38,47.88C384.17,46.97 386.01,46.21 387.96,45.69C395.52,43.66 406.60,43.97 410.79,51.81C412.56,55.13 412.74,60.02 412.88,63.75"/><path d="M414.00,86.50L412.50,80.25"/><path d="M412.75,63.88C409.42,63.87 406.09,63.87 402.76,63.87C396.87,63.88 390.98,63.87 385.46,66.29C383.72,67.05 382.09,68.13 380.94,69.67C378.61,72.81 378.36,77.60 380.13,81.04C380.80,82.35 381.80,83.47 382.97,84.35C386.09,86.71 390.26,87.19 394.06,86.97C396.70,86.81 399.30,86.22 401.72,85.14C403.36,84.41 404.91,83.50 406.53,82.73C408.44,81.82 410.43,81.08 412.38,80.25"/><path d="M412.69,64.00L412.69,80.12"/><path d="M471.23,48.45C470.78,48.16 470.37,47.81 469.93,47.52C469.26,47.08 468.57,46.68 467.86,46.33C462.38,43.55 455.83,43.33 450.18,45.72C445.99,47.50 442.44,50.62 440.11,54.53C433.00,66.46 438.70,82.47 452.10,86.67C455.38,87.70 458.91,87.90 462.29,87.26C464.64,86.81 466.90,85.96 468.96,84.76C469.66,84.36 470.28,83.86 470.96,83.44"/><path d="M533.77,65.77C533.67,66.53 533.73,67.30 533.65,68.07C533.42,70.35 532.83,72.59 531.91,74.70C524.99,90.50 503.48,92.06 494.54,77.23C492.96,74.61 491.94,71.67 491.54,68.64C491.45,67.88 491.49,67.10 491.37,66.35C491.45,65.58 491.37,64.81 491.43,64.05C491.60,61.76 492.14,59.50 493.00,57.37C499.70,40.91 522.07,39.28 530.88,54.80C532.39,57.46 533.34,60.43 533.65,63.48C533.73,64.24 533.67,65.01 533.77,65.77Z"/><path d="M555.50,84.75C555.38,80.43 555.42,76.10 555.42,71.78C555.41,64.30 554.71,55.43 560.43,49.68C561.58,48.52 562.89,47.53 564.35,46.78C567.82,45.00 571.93,44.57 575.76,45.13C581.36,45.94 586.03,49.50 588.08,54.83C589.08,57.41 589.34,60.24 589.58,62.98C590.29,70.79 589.72,78.67 590.00,86.50"/><path d="M271.38,44.75C270.28,47.16 269.14,49.56 268.05,51.97C266.92,54.45 265.84,56.96 264.70,59.43C263.70,61.60 262.65,63.74 261.67,65.91C260.41,68.67 259.14,71.41 257.84,74.14C256.95,75.99 256.13,77.89 254.98,79.58C253.97,81.05 252.70,82.23 251.25,83.25"/><path d="M231.00,45.62C232.02,47.97 233.18,50.26 234.22,52.61C235.15,54.68 236.00,56.79 236.91,58.87C238.20,61.82 239.55,64.74 240.89,67.66C241.89,69.82 242.90,71.97 243.92,74.12C244.80,75.96 245.66,77.85 246.85,79.51C247.96,81.07 249.38,82.26 251.00,83.25"/><path d="M352.69,46.25L352.69,86.50"/></g><circle fill="#ffffff" cx="352.44" cy="24.44" r="5.44"/></svg>
